<?xml version="1.0" standalone="no"?>
<!DOCTYPE svg PUBLIC "-//W3C//DTD SVG 20010904//EN"
 "http://www.w3.org/TR/2001/REC-SVG-20010904/DTD/svg10.dtd">
<svg version="1.0" xmlns="http://www.w3.org/2000/svg"
 width="1920.000000pt" height="1080.000000pt" viewBox="0 0 1920.000000 1080.000000"
 preserveAspectRatio="xMidYMid meet">

<g transform="translate(0.000000,1080.000000) scale(0.100000,-0.100000)"
fill="#000000" stroke="none">
<path d="M0 6555 l0 -4245 4506 0 4506 0 -7 305 -7 305 35 0 35 0 6 127 c3 71
9 192 12 269 l6 142 -51 7 -51 7 0 114 c0 63 -3 114 -7 114 -5 0 -80 7 -168
15 -179 17 -176 16 -200 99 -21 68 -19 187 5 382 21 166 21 211 2 164 l-10
-25 -12 30 c-19 47 -24 201 -11 342 12 131 69 575 75 580 1 2 85 -4 187 -12
101 -8 184 -15 185 -15 1 0 5 178 9 395 l7 395 559 0 559 0 0 -430 0 -430 204
0 204 0 6 -27 c26 -129 40 -412 31 -649 l-7 -194 -24 0 c-20 0 -23 6 -26 43
l-4 42 -13 -30 c-25 -56 -24 -144 3 -324 14 -96 26 -205 26 -242 l0 -68 -32
-6 c-61 -10 -163 -25 -172 -25 -4 0 -5 -67 -1 -150 l7 -150 -41 0 c-22 0 -41
1 -41 3 -1 20 -51 271 -55 275 -3 3 -5 -40 -5 -96 l0 -100 -65 -7 c-65 -7 -65
-7 -65 -39 0 -63 22 -267 56 -516 19 -140 40 -322 46 -404 l11 -148 2256 6
c1241 3 3263 9 4494 12 l2237 6 0 4199 0 4199 -9600 0 -9600 0 0 -4245z"/>
</g>
</svg>
